<svg width="40" height="40" viewBox="0 0 40 40" fill="none" xmlns="http://www.w3.org/2000/svg">
<path d="M0 12.8C0 8.31958 0 6.07937 0.871948 4.36808C1.63893 2.86278 2.86278 1.63893 4.36808 0.871948C6.07937 0 8.31958 0 12.8 0H27.2C31.6804 0 33.9206 0 35.6319 0.871948C37.1372 1.63893 38.3611 2.86278 39.1281 4.36808C40 6.07937 40 8.31958 40 12.8V27.2C40 31.6804 40 33.9206 39.1281 35.6319C38.3611 37.1372 37.1372 38.3611 35.6319 39.1281C33.9206 40 31.6804 40 27.2 40H12.8C8.31958 40 6.07937 40 4.36808 39.1281C2.86278 38.3611 1.63893 37.1372 0.871948 35.6319C0 33.9206 0 31.6804 0 27.2V12.8Z" fill="#4A4A4A"/>
<path d="M24.5832 19.9091C24.5832 20.9962 24.3843 21.9309 23.9866 22.7131C23.5889 23.492 23.0436 24.0919 22.3509 24.5128C21.6615 24.9304 20.8777 25.1392 19.9994 25.1392C19.1178 25.1392 18.3306 24.9304 17.6379 24.5128C16.9485 24.0919 16.4049 23.4903 16.0072 22.7081C15.6095 21.9259 15.4106 20.9929 15.4106 19.9091C15.4106 18.822 15.6095 17.889 16.0072 17.1101C16.4049 16.3279 16.9485 15.728 17.6379 15.3104C18.3306 14.8894 19.1178 14.679 19.9994 14.679C20.8777 14.679 21.6615 14.8894 22.3509 15.3104C23.0436 15.728 23.5889 16.3279 23.9866 17.1101C24.3843 17.889 24.5832 18.822 24.5832 19.9091ZM23.0619 19.9091C23.0619 19.0805 22.9276 18.3828 22.6592 17.8161C22.394 17.246 22.0294 16.8151 21.5654 16.5234C21.1047 16.2285 20.5827 16.081 19.9994 16.081C19.4127 16.081 18.8891 16.2285 18.4284 16.5234C17.9677 16.8151 17.6031 17.246 17.3346 17.8161C17.0695 18.3828 16.9369 19.0805 16.9369 19.9091C16.9369 20.7377 17.0695 21.437 17.3346 22.0071C17.6031 22.5739 17.9677 23.0047 18.4284 23.2997C18.8891 23.5914 19.4127 23.7372 19.9994 23.7372C20.5827 23.7372 21.1047 23.5914 21.5654 23.2997C22.0294 23.0047 22.394 22.5739 22.6592 22.0071C22.9276 21.437 23.0619 20.7377 23.0619 19.9091Z" fill="white"/>
</svg>
