<svg width="15" height="15" viewBox="0 0 15 15" fill="none" xmlns="http://www.w3.org/2000/svg">
<path fill-rule="evenodd" clip-rule="evenodd" d="M0 0.75C0 0.551088 0.0790177 0.360322 0.21967 0.21967C0.360322 0.0790177 0.551088 0 0.75 0H2.362C2.78281 1.22172e-05 3.18952 0.151654 3.50761 0.427141C3.82571 0.702628 4.03388 1.08351 4.094 1.5H13.75C13.8534 1.49997 13.9557 1.52131 14.0504 1.5627C14.1452 1.60409 14.2304 1.66462 14.3006 1.7405C14.3709 1.81638 14.4247 1.90596 14.4586 2.00362C14.4926 2.10128 14.506 2.20491 14.498 2.308L14.14 6.961C14.0868 7.6518 13.7749 8.29707 13.2665 8.7678C12.7582 9.23853 12.0908 9.50003 11.398 9.5H5.047L5.14 10.28C5.14733 10.3406 5.1766 10.3965 5.22229 10.437C5.26798 10.4775 5.32692 10.5 5.388 10.5H11.75C11.9489 10.5 12.1397 10.579 12.2803 10.7197C12.421 10.8603 12.5 11.0511 12.5 11.25C12.5 11.4489 12.421 11.6397 12.2803 11.7803C12.1397 11.921 11.9489 12 11.75 12H5.388C4.95967 12.0001 4.54618 11.843 4.22587 11.5587C3.90556 11.2743 3.70067 10.8823 3.65 10.457L2.61 1.72C2.60267 1.65937 2.5734 1.60351 2.52771 1.56298C2.48202 1.52245 2.42308 1.50005 2.362 1.5H0.75C0.551088 1.5 0.360322 1.42098 0.21967 1.28033C0.0790177 1.13968 0 0.948912 0 0.75ZM4.868 8H11.398C11.7128 7.99992 12.0161 7.88103 12.2471 7.66709C12.4781 7.45315 12.6198 7.15992 12.644 6.846L12.94 3H4.273L4.868 8ZM7.5 14C7.5 14.2652 7.39464 14.5196 7.20711 14.7071C7.01957 14.8946 6.76522 15 6.5 15C6.23478 15 5.98043 14.8946 5.79289 14.7071C5.60536 14.5196 5.5 14.2652 5.5 14C5.5 13.7348 5.60536 13.4804 5.79289 13.2929C5.98043 13.1054 6.23478 13 6.5 13C6.76522 13 7.01957 13.1054 7.20711 13.2929C7.39464 13.4804 7.5 13.7348 7.5 14ZM12.5 14C12.5 14.2652 12.3946 14.5196 12.2071 14.7071C12.0196 14.8946 11.7652 15 11.5 15C11.2348 15 10.9804 14.8946 10.7929 14.7071C10.6054 14.5196 10.5 14.2652 10.5 14C10.5 13.7348 10.6054 13.4804 10.7929 13.2929C10.9804 13.1054 11.2348 13 11.5 13C11.7652 13 12.0196 13.1054 12.2071 13.2929C12.3946 13.4804 12.5 13.7348 12.5 14Z" fill="#4A4A4A"/>
</svg>
