<svg width="32" height="32" viewBox="0 0 32 32" fill="none" xmlns="http://www.w3.org/2000/svg">
<path d="M13.5382 4.94784C13.7628 2.69576 13.875 1.56973 13.9508 1.34941C14.5698 -0.449804 17.1143 -0.449804 17.7333 1.34941C17.8091 1.56973 17.9213 2.69576 18.1459 4.94784C18.1961 5.45105 18.2212 5.70266 18.2665 5.86696C18.6132 7.12242 20.0483 7.71684 21.1811 7.07424C21.3294 6.99014 21.5251 6.82996 21.9164 6.50962C23.6676 5.07594 24.5432 4.35911 24.7526 4.25691C26.4625 3.42233 28.2618 5.22162 27.4272 6.93151C27.325 7.14089 26.6082 8.0165 25.1745 9.76774C24.8541 10.159 24.694 10.3547 24.6099 10.503C23.9673 11.6358 24.5617 13.0709 25.8171 13.4176C25.9814 13.463 26.2331 13.488 26.7363 13.5382C28.9883 13.7628 30.1144 13.875 30.3347 13.9508C32.1339 14.5698 32.1339 17.1143 30.3347 17.7333C30.1144 17.8091 28.9883 17.9213 26.7363 18.1459C26.2331 18.1961 25.9814 18.2212 25.8171 18.2665C24.5617 18.6132 23.9673 20.0483 24.6099 21.1811C24.694 21.3294 24.8541 21.5251 25.1745 21.9164C26.6082 23.6676 27.325 24.5432 27.4272 24.7526C28.2618 26.4625 26.4625 28.2618 24.7526 27.4272C24.5432 27.325 23.6676 26.6082 21.9164 25.1745C21.5251 24.8541 21.3294 24.694 21.1811 24.6099C20.0483 23.9673 18.6132 24.5617 18.2665 25.8171C18.2212 25.9814 18.1961 26.2331 18.1459 26.7363C17.9213 28.9883 17.8091 30.1144 17.7333 30.3347C17.1143 32.1339 14.5698 32.1339 13.9508 30.3347C13.875 30.1144 13.7628 28.9883 13.5382 26.7363C13.488 26.2331 13.463 25.9814 13.4176 25.8171C13.0709 24.5617 11.6358 23.9673 10.503 24.6099C10.3547 24.694 10.159 24.8541 9.76774 25.1745C8.0165 26.6082 7.14089 27.325 6.93151 27.4272C5.22162 28.2618 3.42233 26.4625 4.25691 24.7526C4.35911 24.5432 5.07594 23.6676 6.50962 21.9164C6.82996 21.5251 6.99014 21.3294 7.07424 21.1811C7.71684 20.0483 7.12242 18.6132 5.86696 18.2665C5.70266 18.2212 5.45105 18.1961 4.94784 18.1459C2.69576 17.9213 1.56973 17.8091 1.34941 17.7333C-0.449804 17.1143 -0.449804 14.5698 1.34941 13.9508C1.56973 13.875 2.69576 13.7628 4.94784 13.5382C5.45105 13.488 5.70266 13.463 5.86696 13.4176C7.12242 13.0709 7.71684 11.6358 7.07424 10.503C6.99014 10.3547 6.82996 10.159 6.50962 9.76774C5.07594 8.0165 4.3591 7.14088 4.25691 6.9315C3.42232 5.22161 5.22161 3.42232 6.9315 4.25691C7.14088 4.3591 8.0165 5.07594 9.76774 6.50962C10.159 6.82996 10.3547 6.99014 10.503 7.07424C11.6358 7.71684 13.0709 7.12242 13.4176 5.86696C13.463 5.70266 13.488 5.45105 13.5382 4.94784Z" fill="#344054"/>
</svg>
