<svg width="13" height="13" viewBox="0 0 13 13" fill="none" xmlns="http://www.w3.org/2000/svg">
<path fill-rule="evenodd" clip-rule="evenodd" d="M8.82255 9.883C8.12712 10.4102 7.31623 10.7643 6.45687 10.9161C5.59752 11.0679 4.71438 11.0131 3.88041 10.7561C3.04645 10.4992 2.2856 10.0474 1.66073 9.43827C1.03586 8.82911 0.564914 8.08001 0.286797 7.25286C0.00867924 6.4257 -0.0686236 5.54424 0.0612753 4.6813C0.191174 3.81837 0.524546 2.99872 1.03385 2.2901C1.54315 1.58148 2.21375 1.00421 2.99026 0.606002C3.76677 0.207794 4.62689 7.20708e-05 5.49955 1.07809e-08C6.52344 -6.40861e-05 7.52702 0.285684 8.39732 0.825075C9.26761 1.36447 9.97006 2.13608 10.4256 3.05306C10.8811 3.97004 11.0716 4.99597 10.9757 6.01536C10.8798 7.03475 10.5012 8.00712 9.88255 8.823L12.7795 11.72C12.8491 11.7896 12.9044 11.8722 12.942 11.9632C12.9797 12.0541 12.9991 12.1516 12.9991 12.25C12.9991 12.3484 12.9797 12.4459 12.942 12.5368C12.9044 12.6278 12.8491 12.7104 12.7795 12.78C12.7099 12.8496 12.6273 12.9048 12.5364 12.9425C12.4454 12.9801 12.348 12.9995 12.2495 12.9995C12.1511 12.9995 12.0537 12.9801 11.9627 12.9425C11.8718 12.9048 11.7891 12.8496 11.7195 12.78L8.82255 9.883ZM9.49955 5.5C9.49955 7.71 7.70955 9.5 5.49955 9.5C3.28955 9.5 1.49955 7.71 1.49955 5.5C1.49955 3.29 3.28955 1.5 5.49955 1.5C7.70955 1.5 9.49955 3.29 9.49955 5.5Z" fill="#4A4A4A"/>
</svg>
